<svg xmlns="http://www.w3.org/2000/svg" viewBox="0 0 390.42 237.25"><defs><style>.cls-1{fill:#00eeff;}.cls-1,.cls-2,.cls-3{stroke:#000;stroke-miterlimit:10;stroke-width:2px;}.cls-2{fill:#f4f0bd;}.cls-3{fill:#fa138f;}</style></defs><title>Asset 2</title><g id="Layer_2" data-name="Layer 2"><g id="Layer_1-2" data-name="Layer 1"><g id="SPACE_INHABIT" data-name="SPACE INHABIT"><path class="cls-1" d="M90.24,40.6H54l-4.66-20H40.12L56,84.66h8.3L61,70.41H56.52L51.8,50.82H92l6.75,39-15.17,14.4H48.45L24,89.85,1.15,15.54,18.36,1H61.07L85.91,15.54Z"/><path class="cls-1" d="M185.35,104.25H153.86l-3.49-18.72H137.18l.11,18.72H105.8L109.2,1h53.33ZM139,25.77h-2.29l.25,40.17h10Z"/><path class="cls-1" d="M303.66,1,286.2,104.25H255.79l7.4-53.14H261.6l-16.36,53.14H233.77l-7.56-53.14h-1.6l-1.4,53.14h-30.4L192.44,1h42.49l7.78,51.26h2.19L261.17,1Z"/><path class="cls-1" d="M383.17,20.58H357.52l-5,19.3h20.78l-5.78,19.58h-20.1l-6.57,25.2h24.33l-6,19.59H303.31L324,1h65Z"/><path class="cls-1" d="M127,202.85l-12.77,14.4H86.58l-19.42-14.4L45.73,128.54,60.48,114H93.37l22.25,14.54ZM84.88,133.58H78.69l14.54,64.08h5.42Z"/><path class="cls-1" d="M185.94,217.25H148.5L120.36,114h31.82l11.87,73.15h1.54L166.84,114h31.81Z"/><path class="cls-1" d="M258.25,133.58h-21l-1.61,19.3h16.9l-2.3,19.58H234l-2.09,25.2h19.43l-2.48,19.59H204.66L207.06,114h53.62Z"/><path class="cls-1" d="M330.15,156.19l-15.09,9.65,9.66,9.94-11.49,41.47H288.32l9.08-41.47h-5.69l-8.57,41.47H257.51L272.66,114h50.59l14.56,14.54Zm-23.52-22.61h-6.2l-4.67,22.61h5.92Z"/></g><g id="GAME_OVER" data-name="GAME OVER"><path class="cls-2" d="M90.24,50.6H54l-4.66-20H40.12L56,94.66h8.3L61,80.41H56.52L51.8,60.82H92l6.75,39-15.17,14.4H48.45L24,99.85,1.15,25.54,18.36,11H61.07L85.91,25.54Z"/><path class="cls-2" d="M185.35,114.25H153.86l-3.49-18.72H137.18l.11,18.72H105.8L109.2,11h53.33ZM139,35.77h-2.29l.25,40.17h10Z"/><path class="cls-2" d="M303.66,11,286.2,114.25H255.79l7.4-53.14H261.6l-16.36,53.14H233.77l-7.56-53.14h-1.6l-1.4,53.14h-30.4L192.44,11h42.49l7.78,51.26h2.19L261.17,11Z"/><path class="cls-2" d="M383.17,30.58H357.52l-5,19.3h20.78l-5.78,19.58h-20.1l-6.57,25.2h24.33l-6,19.59H303.31L324,11h65Z"/><path class="cls-2" d="M127,212.85l-12.77,14.4H86.58l-19.42-14.4L45.73,138.54,60.48,124H93.37l22.25,14.54ZM84.88,143.58H78.69l14.54,64.08h5.42Z"/><path class="cls-2" d="M185.94,227.25H148.5L120.36,124h31.82l11.87,73.15h1.54L166.84,124h31.81Z"/><path class="cls-2" d="M258.25,143.58h-21l-1.61,19.3h16.9l-2.3,19.58H234l-2.09,25.2h19.43l-2.48,19.59H204.66L207.06,124h53.62Z"/><path class="cls-2" d="M330.15,166.19l-15.09,9.65,9.66,9.94-11.49,41.47H288.32l9.08-41.47h-5.69l-8.57,41.47H257.51L272.66,124h50.59l14.56,14.54Zm-23.52-22.61h-6.2l-4.67,22.61h5.92Z"/></g><g id="SPACE_INHABIT-2" data-name="SPACE INHABIT"><path class="cls-3" d="M90.24,59.6H54l-4.66-20H40.12L56,103.66h8.3L61,89.41H56.52L51.8,69.82H92l6.75,39-15.17,14.4H48.45L24,108.85,1.15,34.54,18.36,20H61.07L85.91,34.54Z"/><path class="cls-3" d="M185.35,123.25H153.86l-3.49-18.72H137.18l.11,18.72H105.8L109.2,20h53.33ZM139,44.77h-2.29l.25,40.17h10Z"/><path class="cls-3" d="M303.66,20,286.2,123.25H255.79l7.4-53.14H261.6l-16.36,53.14H233.77l-7.56-53.14h-1.6l-1.4,53.14h-30.4L192.44,20h42.49l7.78,51.26h2.19L261.17,20Z"/><path class="cls-3" d="M383.17,39.58H357.52l-5,19.3h20.78l-5.78,19.58h-20.1l-6.57,25.2h24.33l-6,19.59H303.31L324,20h65Z"/><path class="cls-3" d="M127,221.85l-12.77,14.4H86.58l-19.42-14.4L45.73,147.54,60.48,133H93.37l22.25,14.54ZM84.88,152.58H78.69l14.54,64.08h5.42Z"/><path class="cls-3" d="M185.94,236.25H148.5L120.36,133h31.82l11.87,73.15h1.54L166.84,133h31.81Z"/><path class="cls-3" d="M258.25,152.58h-21l-1.61,19.3h16.9l-2.3,19.58H234l-2.09,25.2h19.43l-2.48,19.59H204.66L207.06,133h53.62Z"/><path class="cls-3" d="M330.15,175.19l-15.09,9.65,9.66,9.94-11.49,41.47H288.32l9.08-41.47h-5.69l-8.57,41.47H257.51L272.66,133h50.59l14.56,14.54Zm-23.52-22.61h-6.2l-4.67,22.61h5.92Z"/></g></g></g></svg>