<svg xmlns="http://www.w3.org/2000/svg" viewBox="0 0 487.89 237.25"><defs><style>.cls-1{fill:#00eeff;}.cls-1,.cls-2,.cls-3{stroke:#000;stroke-miterlimit:10;stroke-width:2px;}.cls-2{fill:#f4f0bd;}.cls-3{fill:#fa138f;}</style></defs><title>Asset 1</title><g id="Layer_2" data-name="Layer 2"><g id="Layer_1-2" data-name="Layer 1"><g id="SPACE_INHABIT" data-name="SPACE INHABIT"><path class="cls-1" d="M104.31,34.55H68.76l-4-14H57.16L63.4,41.32l22.13,1.44,26,14.54L119,89.85l-15.65,14.4H68.17L43.83,89.85,36.88,70.69H72.26l4.2,14h6.8L77.09,63.35,56.9,62.05,29.52,47.66,17.92,15.54,34.35,1h40.1L99.92,15.54Z"/><path class="cls-1" d="M203.78,55,182.67,69.11h-18.8l5,35.14h-32.4L115.65,1h59.61L201,15.54ZM163.94,20.58H157l4.1,29h6.61Z"/><path class="cls-1" d="M284.61,104.25H253.12l-1.8-18.72H238.13l-1.58,18.72H205.06L217.76,1h53.33ZM245.29,25.77H243l-3.36,40.17h9.94Z"/><path class="cls-1" d="M376.63,41H340.44l3.22-20.45h-7.78l-9.29,64.08h7l3.85-24.48h35.05L366,89.85l-23.16,14.4H312.64l-21-14.4,6.2-74.31L321.38,1H363l19.17,14.54Z"/><path class="cls-1" d="M460.75,20.58H435.1l-5.86,19.3H450l-6.62,19.58H423.28l-7.66,25.2H440l-6.81,19.59H377.27L402.46,1h65Z"/><path class="cls-1" d="M34.27,114l41,103.25H49L1.56,114Z"/><path class="cls-1" d="M141.69,217.25H121.82L97,175.63h-.94l13.23,41.62H85.24L46.61,114H69.67l29.16,44.06H100L86.83,114h29.85Z"/><path class="cls-1" d="M211.81,217.25H186.18l-5.87-42.48h-5.7L181,217.25H155.37L133.66,114h31.82l6.19,41.18h5.93L171.91,114h31.82Z"/><path class="cls-1" d="M280.65,217.25H255.73l-1.19-18.72H244l-1.39,18.72H217.72L227.86,114h44Zm-30.33-78.48h-1.87l-3.08,40.17h8Z"/><path class="cls-1" d="M356,154l-14.5,10.51L354,174.77l-6.48,28.08-18.6,14.4H286.26L296.15,114h52.91L362,127.25ZM331.8,133.58h-6l-3.4,21.6h5.77ZM325,174.77h-5.7l-3.61,22.89h5.43Z"/><path class="cls-1" d="M414.84,114l-33,103.25H355.52L382.13,114Z"/><path class="cls-1" d="M477.45,133.58H463.16l-35.64,83.67H401.17l30.49-83.67H416.51L423.06,114h63.28Z"/></g><g id="SPACE_INHABIT-2" data-name="SPACE INHABIT"><path class="cls-2" d="M104.31,44.55H68.76l-4-14H57.16L63.4,51.32l22.13,1.44,26,14.54L119,99.85l-15.65,14.4H68.17L43.83,99.85,36.88,80.69H72.26l4.2,14h6.8L77.09,73.35,56.9,72.05,29.52,57.66,17.92,25.54,34.35,11h40.1L99.92,25.54Z"/><path class="cls-2" d="M203.78,65,182.67,79.11h-18.8l5,35.14h-32.4L115.65,11h59.61L201,25.54ZM163.94,30.58H157l4.1,29h6.61Z"/><path class="cls-2" d="M284.61,114.25H253.12l-1.8-18.72H238.13l-1.58,18.72H205.06L217.76,11h53.33ZM245.29,35.77H243l-3.36,40.17h9.94Z"/><path class="cls-2" d="M376.63,51H340.44l3.22-20.45h-7.78l-9.29,64.08h7l3.85-24.48h35.05L366,99.85l-23.16,14.4H312.64l-21-14.4,6.2-74.31L321.38,11H363l19.17,14.54Z"/><path class="cls-2" d="M460.75,30.58H435.1l-5.86,19.3H450l-6.62,19.58H423.28l-7.66,25.2H440l-6.81,19.59H377.27L402.46,11h65Z"/><path class="cls-2" d="M34.27,124l41,103.25H49L1.56,124Z"/><path class="cls-2" d="M141.69,227.25H121.82L97,185.63h-.94l13.23,41.62H85.24L46.61,124H69.67l29.16,44.06H100L86.83,124h29.85Z"/><path class="cls-2" d="M211.81,227.25H186.18l-5.87-42.48h-5.7L181,227.25H155.37L133.66,124h31.82l6.19,41.18h5.93L171.91,124h31.82Z"/><path class="cls-2" d="M280.65,227.25H255.73l-1.19-18.72H244l-1.39,18.72H217.72L227.86,124h44Zm-30.33-78.48h-1.87l-3.08,40.17h8Z"/><path class="cls-2" d="M356,164l-14.5,10.51L354,184.77l-6.48,28.08-18.6,14.4H286.26L296.15,124h52.91L362,137.25ZM331.8,143.58h-6l-3.4,21.6h5.77ZM325,184.77h-5.7l-3.61,22.89h5.43Z"/><path class="cls-2" d="M414.84,124l-33,103.25H355.52L382.13,124Z"/><path class="cls-2" d="M477.45,143.58H463.16l-35.64,83.67H401.17l30.49-83.67H416.51L423.06,124h63.28Z"/></g><g id="SPACE_INHABIT-3" data-name="SPACE INHABIT"><path class="cls-3" d="M104.31,53.55H68.76l-4-14H57.16L63.4,60.32l22.13,1.44,26,14.54,7.4,32.55-15.65,14.4H68.17l-24.34-14.4L36.88,89.69H72.26l4.2,14h6.8L77.09,82.35,56.9,81.05,29.52,66.66,17.92,34.54,34.35,20h40.1L99.92,34.54Z"/><path class="cls-3" d="M203.78,74,182.67,88.11h-18.8l5,35.14h-32.4L115.65,20h59.61L201,34.54ZM163.94,39.58H157l4.1,29h6.61Z"/><path class="cls-3" d="M284.61,123.25H253.12l-1.8-18.72H238.13l-1.58,18.72H205.06L217.76,20h53.33ZM245.29,44.77H243l-3.36,40.17h9.94Z"/><path class="cls-3" d="M376.63,60H340.44l3.22-20.45h-7.78l-9.29,64.08h7l3.85-24.48h35.05L366,108.85l-23.16,14.4H312.64l-21-14.4,6.2-74.31L321.38,20H363l19.17,14.54Z"/><path class="cls-3" d="M460.75,39.58H435.1l-5.86,19.3H450l-6.62,19.58H423.28l-7.66,25.2H440l-6.81,19.59H377.27L402.46,20h65Z"/><path class="cls-3" d="M34.27,133l41,103.25H49L1.56,133Z"/><path class="cls-3" d="M141.69,236.25H121.82L97,194.63h-.94l13.23,41.62H85.24L46.61,133H69.67l29.16,44.06H100L86.83,133h29.85Z"/><path class="cls-3" d="M211.81,236.25H186.18l-5.87-42.48h-5.7L181,236.25H155.37L133.66,133h31.82l6.19,41.18h5.93L171.91,133h31.82Z"/><path class="cls-3" d="M280.65,236.25H255.73l-1.19-18.72H244l-1.39,18.72H217.72L227.86,133h44Zm-30.33-78.48h-1.87l-3.08,40.17h8Z"/><path class="cls-3" d="M356,173l-14.5,10.51L354,193.77l-6.48,28.08-18.6,14.4H286.26L296.15,133h52.91L362,146.25ZM331.8,152.58h-6l-3.4,21.6h5.77ZM325,193.77h-5.7l-3.61,22.89h5.43Z"/><path class="cls-3" d="M414.84,133l-33,103.25H355.52L382.13,133Z"/><path class="cls-3" d="M477.45,152.58H463.16l-35.64,83.67H401.17l30.49-83.67H416.51L423.06,133h63.28Z"/></g></g></g></svg>
